<svg width="32" height="32" viewBox="0 0 32 32" fill="none" xmlns="http://www.w3.org/2000/svg">
  <!-- Circular background -->
  <circle cx="16" cy="16" r="15" fill="white" stroke="#E5E7EB" stroke-width="1"/>
  
  <!-- Arch/Curve -->
  <path d="M8 20 Q16 10 24 20" stroke="#1E40AF" stroke-width="1.2" fill="none"/>
  
  <!-- Bird body -->
  <ellipse cx="12" cy="18" rx="2.5" ry="1.8" fill="#F59E0B"/>
  
  <!-- Bird head -->
  <circle cx="11" cy="16.5" r="1.2" fill="#F59E0B"/>
  
  <!-- Bird beak -->
  <path d="M9.5 16.5 L8.2 16 L8.2 17 Z" fill="#F59E0B"/>
  
  <!-- Bird wings -->
  <path d="M10 18 Q8.5 15.5 7 18 Q8.5 20.5 10 18" fill="#3B82F6"/>
  <path d="M14 18 Q15.5 15.5 17 18 Q15.5 20.5 14 18" fill="#60A5FA"/>
  
  <!-- Open book -->
  <rect x="20" y="15" width="5" height="3.5" rx="0.4" fill="#F59E0B"/>
  <path d="M20 16.5 L25 16.5" stroke="#1E40AF" stroke-width="0.4"/>
  <path d="M20 17.2 L25 17.2" stroke="#1E40AF" stroke-width="0.4"/>
  <path d="M20 17.9 L25 17.9" stroke="#1E40AF" stroke-width="0.4"/>
  
  <!-- Book pages -->
  <path d="M20.8 15 L20.8 18.5" stroke="#1E40AF" stroke-width="0.25"/>
  <path d="M22 15 L22 18.5" stroke="#1E40AF" stroke-width="0.25"/>
  <path d="M23.2 15 L23.2 18.5" stroke="#1E40AF" stroke-width="0.25"/>
  <path d="M24.4 15 L24.4 18.5" stroke="#1E40AF" stroke-width="0.25"/>
</svg>
